<mxfile host="Electron" modified="2024-04-15T08:13:53.509Z" agent="Mozilla/5.0 (Windows NT 10.0; Win64; x64) AppleWebKit/537.36 (KHTML, like Gecko) draw.io/24.2.5 Chrome/120.0.6099.109 Electron/28.1.0 Safari/537.36" etag="ellf_2DUGMgs69ekT2td" version="24.2.5" type="device">
  <diagram name="Страница — 1" id="tLsnh6AF555X36yOwFqP">
    <mxGraphModel dx="1276" dy="614" grid="1" gridSize="10" guides="1" tooltips="1" connect="1" arrows="1" fold="1" page="1" pageScale="1" pageWidth="827" pageHeight="1169" math="0" shadow="0">
      <root>
        <mxCell id="0" />
        <mxCell id="1" parent="0" />
        <mxCell id="hHoaCU5ooKYtc-pTQhiL-1" value="Динамическая маршрутизация по протоколу IS-IS&lt;div&gt;+&lt;/div&gt;&lt;div&gt;iBGP&lt;/div&gt;" style="ellipse;whiteSpace=wrap;html=1;" vertex="1" parent="1">
          <mxGeometry x="80" y="60" width="680" height="120" as="geometry" />
        </mxCell>
        <mxCell id="hHoaCU5ooKYtc-pTQhiL-3" value="Динамическая маршрутизация по протоколу OSPF" style="ellipse;whiteSpace=wrap;html=1;" vertex="1" parent="1">
          <mxGeometry x="70" y="310" width="120" height="80" as="geometry" />
        </mxCell>
        <mxCell id="hHoaCU5ooKYtc-pTQhiL-4" value="Динамическая маршрутизация по протоколу OSPF&lt;div&gt;+&lt;/div&gt;&lt;div&gt;Маршрутизация мжду VLAN-ми методом Router-on-the-stick&lt;/div&gt;" style="ellipse;whiteSpace=wrap;html=1;" vertex="1" parent="1">
          <mxGeometry x="330" y="310" width="225" height="140" as="geometry" />
        </mxCell>
        <mxCell id="hHoaCU5ooKYtc-pTQhiL-5" value="Статическая маршрутизация" style="ellipse;whiteSpace=wrap;html=1;" vertex="1" parent="1">
          <mxGeometry x="660" y="310" width="120" height="80" as="geometry" />
        </mxCell>
        <mxCell id="hHoaCU5ooKYtc-pTQhiL-6" value="" style="endArrow=none;html=1;rounded=0;exitX=0.5;exitY=0;exitDx=0;exitDy=0;" edge="1" parent="1" source="hHoaCU5ooKYtc-pTQhiL-3">
          <mxGeometry width="50" height="50" relative="1" as="geometry">
            <mxPoint x="250" y="240" as="sourcePoint" />
            <mxPoint x="240" y="170" as="targetPoint" />
          </mxGeometry>
        </mxCell>
        <mxCell id="hHoaCU5ooKYtc-pTQhiL-7" value="" style="endArrow=none;html=1;rounded=0;exitX=0.5;exitY=0;exitDx=0;exitDy=0;" edge="1" parent="1" source="hHoaCU5ooKYtc-pTQhiL-4">
          <mxGeometry width="50" height="50" relative="1" as="geometry">
            <mxPoint x="250" y="240" as="sourcePoint" />
            <mxPoint x="443" y="180" as="targetPoint" />
          </mxGeometry>
        </mxCell>
        <mxCell id="hHoaCU5ooKYtc-pTQhiL-8" value="" style="endArrow=none;html=1;rounded=0;exitX=0.5;exitY=0;exitDx=0;exitDy=0;" edge="1" parent="1" source="hHoaCU5ooKYtc-pTQhiL-5">
          <mxGeometry width="50" height="50" relative="1" as="geometry">
            <mxPoint x="250" y="240" as="sourcePoint" />
            <mxPoint x="620" y="170" as="targetPoint" />
          </mxGeometry>
        </mxCell>
        <mxCell id="hHoaCU5ooKYtc-pTQhiL-9" value="eBGP" style="text;html=1;align=center;verticalAlign=middle;whiteSpace=wrap;rounded=0;" vertex="1" parent="1">
          <mxGeometry x="170" y="240" width="60" height="30" as="geometry" />
        </mxCell>
        <mxCell id="hHoaCU5ooKYtc-pTQhiL-10" value="eBGP" style="text;html=1;align=center;verticalAlign=middle;whiteSpace=wrap;rounded=0;" vertex="1" parent="1">
          <mxGeometry x="430" y="240" width="60" height="30" as="geometry" />
        </mxCell>
        <mxCell id="hHoaCU5ooKYtc-pTQhiL-11" value="eBGP" style="text;html=1;align=center;verticalAlign=middle;whiteSpace=wrap;rounded=0;" vertex="1" parent="1">
          <mxGeometry x="670" y="230" width="60" height="30" as="geometry" />
        </mxCell>
      </root>
    </mxGraphModel>
  </diagram>
</mxfile>
